<?xml version="1.0" encoding="UTF-8" standalone="no"?>
<svg width="83px" height="68px" viewBox="0 0 83 68" version="1.1" xmlns="http://www.w3.org/2000/svg" xmlns:xlink="http://www.w3.org/1999/xlink">
    <!-- Generator: Sketch 49.3 (51167) - http://www.bohemiancoding.com/sketch -->
    <title>Group</title>
    <desc>Created with Sketch.</desc>
    <defs></defs>
    <g id="Page-1" stroke="none" stroke-width="1" fill="none" fill-rule="evenodd">
        <g id="2AI能力-有功能体验" transform="translate(-919.000000, -1460.000000)">
            <g id="产品优势" transform="translate(0.000000, 1258.000000)">
                <g id="Group" transform="translate(916.000000, 192.000000)">
                    <rect id="Rectangle-8" fill-opacity="0.2" fill="#FF0000" opacity="0" x="0" y="0" width="88" height="88"></rect>
                    <path d="M73.3937061,58.8503718 L52.2996779,26.3145957 L52.2067186,26.2216364 C51.7958265,25.8124066 51.237256,25.5861855 50.6573959,25.5941607 C50.3083043,25.5931522 49.9636845,25.6726798 49.6503362,25.8265591 L49.4644175,25.9195184 L49.3172318,26.0667041 C48.9936371,26.3888276 48.7703097,26.7978127 48.6742629,27.2441893 C48.5613984,27.7926529 48.7039068,28.3626862 49.0615936,28.793512 L70.1556217,61.3292881 L70.2485811,61.4222474 C70.660965,61.8361631 71.2141302,62.0795558 71.7979037,62.1039494 C72.3083424,62.1268073 72.8052174,61.9359175 73.1690543,61.5771797 C73.9409534,60.8646267 74.0385796,59.6796475 73.3937061,58.8503718 Z M40.036789,26.0976905 C39.6905466,25.7490234 39.2189866,25.5537027 38.7276113,25.5554276 C38.1403872,25.5784903 37.5849978,25.8284155 37.1782887,26.2526228 L37.0853293,26.3455822 L16.7194828,57.8820451 C16.0676095,58.7259637 16.1864872,59.9317236 16.9906143,60.6320929 C17.3520683,60.9896186 17.8460752,61.1804849 18.3540182,61.1588626 C18.9430521,61.1659957 19.5069751,60.9206892 19.9033409,60.4849072 L20.0040469,60.3842012 L40.4628527,28.6230865 C40.8686397,27.7758148 40.6980919,26.7649317 40.036789,26.0976905 Z M20.2984182,69.664644 C20.1912358,70.1438884 20.2805173,70.6460968 20.5463098,71.0590344 C20.880419,71.5524561 21.3951692,71.8946955 21.9794333,72.0118679 L22.1111257,72.0118679 L65.9259708,72.1745468 C66.9884491,72.2727359 67.9431419,71.5252896 68.1027692,70.4702918 C68.1973034,69.9848113 68.0911001,69.4817431 67.8083979,69.0759014 C67.4933224,68.5931108 66.9904056,68.2643887 66.4217541,68.1695477 L66.282315,68.1695477 L22.2350715,67.9681357 C21.2944479,68.0642913 20.5175432,68.7448599 20.2984182,69.664644 Z M10.925016,76.396451 C7.72216963,76.3995849 4.83295334,74.4726486 3.60510497,71.5145033 C2.3772566,68.5563581 3.05269137,65.1498287 5.31633805,62.883965 C7.57998472,60.6181012 10.9858512,59.9393319 13.9451971,61.1642838 C16.9045429,62.3892357 18.8343067,65.2765643 18.8343083,68.4794122 C18.8300471,72.8470827 15.2926802,76.3879142 10.925016,76.396451 Z M10.925016,64.0018697 C8.46497258,64.0018697 6.47071335,65.9961289 6.47071335,68.4561723 C6.47071335,70.9162158 8.46497258,72.910475 10.925016,72.910475 C13.3850595,72.910475 15.3793187,70.9162158 15.3793187,68.4561723 C15.3665502,66.00395 13.377268,64.021587 10.925016,64.0173629 L10.925016,64.0018697 Z M44.2896797,25.8343057 C41.0847219,25.8342811 38.1959412,23.9019866 36.9723719,20.939786 C35.7488025,17.9775854 36.4318494,14.5699084 38.7025361,12.3081089 C40.9732228,10.0463095 44.3835522,9.37663114 47.3409317,10.6118076 C50.2983113,11.846984 52.2192624,14.74332 52.2067186,17.9482533 C52.1854174,22.3068372 48.6483137,25.8300971 44.2896797,25.8343057 Z M44.2896797,13.4397243 C41.8377478,13.4441703 39.8504594,15.4293999 39.8434719,17.8813259 C39.8364845,20.3332519 41.8124257,22.3297759 44.2642925,22.3481966 C46.7161592,22.3666174 48.7218753,20.4000075 48.751729,17.9482533 C48.7599846,16.7594845 48.2935242,15.6165681 47.4558311,14.7730578 C46.6181381,13.9295475 45.4784771,13.4551889 44.2896797,13.4552175 L44.2896797,13.4397243 Z M77.2592662,78 C72.8868063,78 69.3422273,74.455421 69.3422273,70.0829612 C69.3422273,65.7105013 72.8868063,62.1659223 77.2592662,62.1659223 C81.631726,62.1659223 85.176305,65.7105013 85.176305,70.0829612 C85.1720347,74.4536509 81.6299559,77.9957297 77.2592662,78 Z M77.2592662,65.6054186 C74.8002357,65.6096952 72.8098633,67.6058442 72.8127131,70.0648767 C72.8155629,72.5239093 74.8105567,74.5154396 77.2695905,74.5140165 C79.7286243,74.5125935 81.7213117,72.5187555 81.7213155,70.0597213 C81.7042858,67.6075091 79.7115375,65.6285993 77.2592662,65.6286585 L77.2592662,65.6054186 Z" id="Shape" fill="#282E39" fill-rule="nonzero"></path>
                </g>
            </g>
        </g>
    </g>
</svg>