<?xml version="1.0" encoding="UTF-8" standalone="no"?>
<svg width="50px" height="25px" viewBox="0 0 50 25" version="1.1" xmlns="http://www.w3.org/2000/svg" xmlns:xlink="http://www.w3.org/1999/xlink">
    <!-- Generator: Sketch 49.3 (51167) - http://www.bohemiancoding.com/sketch -->
    <title>icon</title>
    <desc>Created with Sketch.</desc>
    <defs></defs>
    <g id="Page-1" stroke="none" stroke-width="1" fill="none" fill-rule="evenodd">
        <g id="1首页" transform="translate(-694.000000, -659.000000)">
            <g id="AI能力" transform="translate(360.000000, 550.000000)">
                <g id="智能语音" transform="translate(300.000000, 92.000000)">
                    <g id="icon" transform="translate(30.000000, 0.000000)">
                        <rect id="Rectangle-11" fill="#FFFFFF" opacity="0" x="0" y="0" width="57" height="60"></rect>
                        <path d="M41,41.7492163 C40.4639498,41.7492163 40.0407524,41.3119122 40.0407524,40.7899687 L40.0407524,17.9592476 C40.0407524,17.4231975 40.4780564,17 41,17 C41.5360502,17 41.9592476,17.4373041 41.9592476,17.9592476 L41.9592476,40.7758621 C41.9592476,41.3119122 41.5360502,41.7492163 41,41.7492163 Z M47.0203762,38.8291536 C46.484326,38.8291536 46.0611285,38.3918495 46.0611285,37.869906 L46.0611285,20.8793103 C46.0611285,20.3432602 46.4984326,19.9200627 47.0203762,19.9200627 C47.5564263,19.9200627 47.9796238,20.3573668 47.9796238,20.8793103 L47.9796238,37.869906 C47.9796238,38.4059561 47.5564263,38.8291536 47.0203762,38.8291536 Z M34.9796238,38.8291536 C34.4435737,38.8291536 34.0203762,38.3918495 34.0203762,37.869906 L34.0203762,20.8793103 C34.0203762,20.3432602 34.4576803,19.9200627 34.9796238,19.9200627 C35.515674,19.9200627 35.9388715,20.3573668 35.9388715,20.8793103 L35.9388715,37.869906 C35.9388715,38.4059561 35.515674,38.8291536 34.9796238,38.8291536 Z M28.9592476,35.9655172 C28.4231975,35.9655172 28,35.5282132 28,35.0062696 L28,23.7429467 C28,23.2068966 28.4373041,22.7836991 28.9592476,22.7836991 C29.4952978,22.7836991 29.9184953,23.2210031 29.9184953,23.7429467 L29.9184953,34.992163 C29.9184953,35.5282132 29.4952978,35.9655172 28.9592476,35.9655172 Z M53.0407524,35.9655172 C52.5047022,35.9655172 52.0815047,35.5282132 52.0815047,35.0062696 L52.0815047,23.7429467 C52.0815047,23.2068966 52.5188088,22.7836991 53.0407524,22.7836991 C53.5768025,22.7836991 54,23.2210031 54,23.7429467 L54,34.992163 C54,35.5282132 53.5768025,35.9655172 53.0407524,35.9655172 Z M17,41.7492163 C16.4639498,41.7492163 16.0407524,41.3119122 16.0407524,40.7899687 L16.0407524,17.9592476 C16.0407524,17.4231975 16.4780564,17 17,17 C17.5360502,17 17.9592476,17.4373041 17.9592476,17.9592476 L17.9592476,40.7758621 C17.9592476,41.3119122 17.5360502,41.7492163 17,41.7492163 Z M23.0203762,38.8291536 C22.484326,38.8291536 22.0611285,38.3918495 22.0611285,37.869906 L22.0611285,20.8793103 C22.0611285,20.3432602 22.4984326,19.9200627 23.0203762,19.9200627 C23.5564263,19.9200627 23.9796238,20.3573668 23.9796238,20.8793103 L23.9796238,37.869906 C23.9796238,38.4059561 23.5564263,38.8291536 23.0203762,38.8291536 Z M10.9796238,38.8291536 C10.4435737,38.8291536 10.0203762,38.3918495 10.0203762,37.869906 L10.0203762,20.8793103 C10.0203762,20.3432602 10.4576803,19.9200627 10.9796238,19.9200627 C11.515674,19.9200627 11.9388715,20.3573668 11.9388715,20.8793103 L11.9388715,37.869906 C11.9388715,38.4059561 11.515674,38.8291536 10.9796238,38.8291536 Z M4.95924765,35.9655172 C4.42319749,35.9655172 4,35.5282132 4,35.0062696 L4,23.7429467 C4,23.2068966 4.43730408,22.7836991 4.95924765,22.7836991 C5.49529781,22.7836991 5.9184953,23.2210031 5.9184953,23.7429467 L5.9184953,34.992163 C5.9184953,35.5282132 5.49529781,35.9655172 4.95924765,35.9655172 Z" id="Combined-Shape" fill="#4383DB" fill-rule="nonzero"></path>
                    </g>
                </g>
            </g>
        </g>
    </g>
</svg>