<?xml version="1.0" encoding="UTF-8" standalone="no"?>
<svg width="93px" height="98px" viewBox="0 0 93 98" version="1.1" xmlns="http://www.w3.org/2000/svg" xmlns:xlink="http://www.w3.org/1999/xlink">
    <!-- Generator: Sketch 49.3 (51167) - http://www.bohemiancoding.com/sketch -->
    <title>logo</title>
    <desc>Created with Sketch.</desc>
    <defs></defs>
    <g id="Page-1" stroke="none" stroke-width="1" fill="none" fill-rule="evenodd">
        <g id="1首页" transform="translate(-836.000000, -3039.000000)" fill="#FFFFFF">
            <g id="footer" transform="translate(0.000000, 2984.000000)">
                <g id="logo" transform="translate(836.000000, 55.000000)">
                    <path d="M44.1904505,60.4929754 L44.1904505,34.4276095 C42.4141942,33.8800351 41.1226326,32.2212552 41.1226326,30.2598683 C41.1226326,27.8521877 43.0683884,25.9002701 45.4684685,25.9002701 C47.868959,25.9002701 49.8143043,27.8521877 49.8143043,30.2598683 C49.8143043,32.2212552 48.5231532,33.8800351 46.7468969,34.4276095 L46.7468969,61.8018018 L75.6336336,61.8018018 L75.6336336,30.2598683 C75.6336336,13.5477323 62.1282583,0 45.4684685,0 C28.8086787,0 15.3033033,13.5477323 15.3033033,30.2598683 C15.3033033,46.542179 28.1237037,59.8210646 44.1904505,60.4929754" id="Fill-1"></path>
                    <g id="Group-5" transform="translate(0.000000, 72.102102)">
                        <polygon id="Fill-4" points="91.966967 24.2792793 92.692608 24.2792793 92.692608 18.3933934 91.966967 18.3933934"></polygon>
                        <polygon id="Fill-6" points="0 24.2792793 0.715648613 24.2792793 0.715648613 18.3933934 0 18.3933934"></polygon>
                        <polygon id="Fill-8" points="1.47147147 19.8648649 1.47147147 21.6130476 3.67867868 25.015015 3.67867868 25.0094496 3.67867868 23.2661901"></polygon>
                        <polygon id="Fill-10" points="3.67867868 22.5726909 3.67867868 24.2792793 4.39432729 24.2792793 4.39432729 18.3933934 3.67867868 18.3933934"></polygon>
                        <polygon id="Fill-12" points="14.7147147 18.3933934 12.5122295 18.3933934 12.5075075 19.0451222 14.7147147 19.0451222"></polygon>
                        <polygon id="Fill-14" points="12.0236674 23.4173154 12.0236674 21.6158865 12.0282018 21.6158865 12.0282018 21.6156765 14.2157169 21.6156765 14.2157169 20.7535026 12.0236674 20.7535026 12.0236674 20.3204203 12.0184853 20.3204203 12.0236674 19.308915 12.0236674 19.2561974 12.0238834 19.2561974 12.0282018 18.3933934 11.036036 18.3933934 11.036036 24.2792793 11.5406479 24.2792793 14.7147147 24.2792793 14.7147147 23.4173154 12.0282018 23.4173154"></polygon>
                        <polygon id="Fill-16" points="24.2781183 24.2792793 24.2792793 19.2563766 24.2792793 18.3933934 21.3363363 18.3933934 21.3363363 19.2563766 23.2071973 19.2563766 23.2071973 24.2792793"></polygon>
                        <polygon id="Fill-18" points="24.2792793 19.0449635 25.7507508 19.0449635 25.7507508 18.3933934 24.2843903 18.3933934"></polygon>
                        <polygon id="Fill-20" points="44.0508746 18.3933934 43.9792084 18.3933934 41.9369369 24.2792793 42.9304514 24.2792793 44.512012 19.7217862 45.1958264 21.6916677 44.308958 21.6916677 44.0112022 22.5558169 45.4959283 22.5558169 46.0942125 24.279069 47.0870871 24.279069 45.0452422 18.3933934"></polygon>
                        <polygon id="Fill-22" points="81.5733971 18.3933934 81.501731 18.3933934 79.4594595 24.2792793 80.4529739 24.2792793 82.0345345 19.7217862 82.7183489 21.6916677 81.8314805 21.6916677 81.5337248 22.5558169 83.0184508 22.5558169 83.6167351 24.279069 84.6096096 24.279069 82.5677647 18.3933934"></polygon>
                        <path d="M56.2818703,21.4704932 C55.6990596,21.206637 54.990187,20.8604833 54.8456662,20.7710794 C54.5307368,20.5762247 54.3697828,20.3758682 54.3697828,20.1720731 C54.3697828,19.7935964 54.8526446,19.4417117 55.4426589,19.4417117 C55.8856761,19.4417117 56.2854721,19.6436729 56.4448503,19.9233467 L56.5628081,20.1305805 L57.3072481,19.3424505 L57.2147277,19.2193481 C56.8306894,18.7076826 56.1666138,18.3933934 55.4426589,18.3933934 C54.2909942,18.3933934 53.3417038,19.1817526 53.3417038,20.1720731 C53.3417038,20.7658068 53.688824,21.3063567 54.2513748,21.6337126 C54.2880678,21.6557198 54.4033243,21.7123423 54.653647,21.8324645 C54.6624263,21.83682 55.2121459,22.0997593 55.3861562,22.1834322 C55.408217,22.1939773 55.408217,22.1939773 55.4300527,22.2047516 C55.4915078,22.2343236 55.5498114,22.262291 55.6054137,22.2893414 C56.0923274,22.5245425 56.3593083,22.8085719 56.3593083,23.1013125 C56.3593083,23.5526877 55.7807747,23.9671551 55.0761792,23.9671551 C54.5125028,23.9671551 54.0102816,23.6971094 53.8477519,23.337889 L53.7390236,23.0978739 L52.972973,23.9082402 L53.0544629,24.0295087 C53.4612374,24.6349337 54.2308897,25.015015 55.0761792,25.015015 C56.3435506,25.015015 57.3873874,24.1670532 57.3873874,23.1013125 C57.3873874,22.4122145 56.9508984,21.7737788 56.2818703,21.4704932" id="Fill-24"></path>
                        <polygon id="Fill-26" points="33.3600038 23.4173154 33.3600038 21.6158865 33.3645382 21.6158865 33.3645382 21.6156765 35.5522691 21.6156765 35.5522691 20.7535026 33.3600038 20.7535026 33.3600038 20.3204203 33.3548216 20.3204203 33.3600038 19.308915 33.3600038 19.2561974 33.3602197 19.2561974 33.3645382 18.3933934 32.3723724 18.3933934 32.3723724 24.2792793 32.8769842 24.2792793 36.0510511 24.2792793 36.0510511 23.4173154 33.3645382 23.4173154"></polygon>
                        <polygon id="Fill-28" points="36.0510511 18.3933934 33.8485659 18.3933934 33.8438438 19.0451222 36.0510511 19.0451222"></polygon>
                        <polygon id="Fill-30" points="64.9964825 23.4173154 64.9964825 21.6158865 65.0010171 21.6158865 65.0010171 21.6156765 67.1888765 21.6156765 67.1888765 20.7535026 64.9964825 20.7535026 64.9964825 20.3204203 64.9913 20.3204203 64.9964825 19.308915 64.9964825 19.2561974 64.9966984 19.2561974 65.0010171 18.3933934 64.009009 18.3933934 64.009009 24.2792793 64.5134345 24.2792793 67.6876877 24.2792793 67.6876877 23.4173154 65.0010171 23.4173154"></polygon>
                        <polygon id="Fill-32" points="67.6876877 18.3933934 65.4852025 18.3933934 65.4804805 19.0451222 67.6876877 19.0451222"></polygon>
                        <path d="M72.4620823,11.6983722 L66.1753381,11.6983722 L66.17354,11.3162335 L66.1721915,11.3162335 L66.1593802,8.85187919 L64.7447447,8.85504296 L64.7447447,16.1861862 L72.6322252,16.1861862 L73.9356047,16.1861862 C75.1812211,16.1861862 76.5165165,15.2112917 76.5165165,13.8980993 L76.5165165,10.1625857 L76.5165165,8.82882883 L66.9354743,8.85007131 L66.9354743,10.3881176 L75.099184,10.3641633 L75.099184,13.8980993 C75.099184,14.4370709 74.7159692,14.7005681 74.2630791,14.7005681 L72.8828319,14.7005681 L66.1892732,14.7005681 L66.1823056,13.2248934 L72.4620823,13.2248934 L72.4620823,11.6983722 Z" id="Fill-34"></path>
                        <polygon id="Fill-36" points="68.8175338 5.88588589 67.6876877 7.01157216 69.5007845 8.82882883 70.6306306 7.7033781"></polygon>
                        <polygon id="Fill-38" points="63.3083982 3.6136391 63.2732733 4.94806849 65.6769167 4.98841421 63.5670056 7.06201176 64.6161436 8.09309309 67.7398482 5.02315037 70.6306306 5.07169469 70.6306306 3.6136391 67.8050489 3.6136391 67.8050489 2.27252138 70.2613797 2.27252138 70.2613797 0.814250042 65.7276283 0.814250042 65.7276283 0 64.3439253 0 64.3439253 0.878328543 64.3439253 0.942407044 63.4578987 1.8134 64.5070367 2.84426558 65.0887935 2.27252138 66.4213459 2.27252138 66.4213459 3.6136391"></polygon>
                        <polygon id="Fill-40" points="73.3643874 2.24793224 75.2091771 2.24793224 75.2091771 5.84516085 72.6743278 5.84516085 72.6743278 3.1546236 72.663131 0.735735736 71.3663664 0.735735736 71.3663664 7.35735736 76.5165165 7.35735736 76.5165165 0.735735736 73.3643874 0.735735736"></polygon>
                        <polygon id="Fill-42" points="80.9523411 13.2169572 83.8738739 13.2169572 83.8738739 11.6974768 80.9523411 11.6974768 80.9523411 10.3878668 83.8738739 10.3878668 83.8738739 8.86838641 80.9523411 8.86838641 80.9523411 8.13620154 80.9403578 5.88588589 79.4594595 5.88588589 79.4594595 16.1861862 80.9523411 16.1861862"></polygon>
                        <polygon id="Fill-44" points="92.7027027 10.5609669 91.6956094 9.56456456 89.024024 12.2470653 90.0320204 13.2432432"></polygon>
                        <path d="M87.5552352,8.82882883 L87.5525526,13.8076797 C87.5525526,15.1159596 88.4766369,16.1861862 89.6202892,16.1861862 L92.7027027,16.1861862 L92.7027027,14.7707034 L89.6202892,14.7707034 C89.2040592,14.7707034 88.8538647,14.3445947 88.8538647,13.8076797 L88.8565474,8.82882883 L87.5552352,8.82882883 Z" id="Fill-46"></path>
                        <polygon id="Fill-48" points="92.7027027 1.73213803 91.6956094 0.735735736 89.024024 3.41823648 90.0320204 4.41441441"></polygon>
                        <polygon id="Fill-50" points="86.0810811 16.1861862 86.0810811 5.88588589 81.6666667 5.88588589 81.6666667 7.40806562 84.7419661 7.40806562 84.7419661 16.1861862"></polygon>
                        <polygon id="Fill-52" points="85.0731932 2.52947553 84.2344068 3.55203952 80.7411616 3.55841873 82.8607829 1.08304837 81.8669868 0 79.4594595 2.79551228 79.4594595 5.15015015 84.8032813 5.15015015 86.0810811 3.62788125"></polygon>
                        <path d="M92.7027027,6.02889016 L89.6202892,6.02889016 C89.2042656,6.02889016 88.8538647,5.62897609 88.8538647,5.12506745 L88.8538647,0.735735736 L87.5525526,0.735735736 L87.5525526,5.12506745 C87.5525526,6.35292202 88.4766369,7.35735736 89.6202892,7.35735736 L92.7027027,7.35735736 L92.7027027,6.02889016 Z" id="Fill-54"></path>
                        <path d="M5.37642463,4.02427401 L6.55471884,4.71970585 L4.83587703,7.76327151 L6.55471884,10.8070585 L5.37642463,11.5024903 L4.05049187,9.15435653 L2.72455911,11.5024903 L1.5462649,10.8070585 L3.26510672,7.76327151 L1.5462649,4.71970585 L2.72455911,4.02427401 L4.05049187,6.37240782 L5.37642463,4.02427401 Z M13.2432432,13.9208977 C13.2432432,15.2066277 12.2411628,16.1860313 11.0412207,16.1860313 L9.2987827,16.1860313 L9.2987827,14.7951676 L11.0412207,14.7951676 C11.477642,14.7951676 11.8781278,14.448337 11.8781278,13.9208977 L11.8781278,10.1119587 L11.8781278,2.23268487 L2.05193777,2.23224221 L2.0588651,0.735802136 L13.2425938,0.735802136 L13.2425938,10.1119587 L13.2432432,10.1119587 L13.2432432,13.9208977 Z M1.349096,0.743261096 L1.349096,16.1861862 L0,16.1861862 L0,0.735735736 L1.349096,0.743261096 Z M7.83133773,11.5024682 L6.65304352,10.8070364 L8.37188534,7.76347071 L6.65304352,4.71968372 L7.83133773,4.02425188 L9.15727049,6.37238569 L10.4832033,4.02425188 L11.6614975,4.71968372 L9.94265564,7.76347071 L11.6614975,10.8070364 L10.4832033,11.5024682 L9.15727049,9.1543344 L7.83133773,11.5024682 Z" id="Combined-Shape"></path>
                        <path d="M29.4165283,8.7369386 L29.423092,9.52129031 L29.4294294,9.5215107 L29.4294294,13.7681174 C29.4294294,15.0507605 28.3307933,16.0997951 27.0741745,16.0997951 L25.2499044,16.0997951 L25.2499044,14.7124689 L27.0741745,14.7124689 C27.5313737,14.7124689 27.9161453,14.2948385 27.9161453,13.7681174 L27.9109396,10.2445953 L26.1645291,10.2417303 L22.6400212,16.1861862 L21.3127855,15.4401815 L24.3968431,10.2388652 L22.3122863,10.2355595 L18.7839306,16.1861862 L17.4566949,15.4401815 L20.5443739,10.2326944 L18.4955783,10.2293887 L16.7776862,13.1265754 L15.4504505,12.3805708 L17.6110562,8.7369386 L17.6110562,8.023551 L19.0383326,8.023551 L19.0383326,8.7369386 L29.4165283,8.7369386 Z M18.647812,0.735735736 L18.6602605,3.15336379 L18.6602605,3.43611829 L24.9125728,3.43611829 L24.9125728,4.92570334 L18.6602605,4.92570334 L18.6602605,6.1250408 L27.3248645,6.11490307 L27.3248645,2.22576156 L19.4116968,2.23501775 L19.4116968,0.735735736 L28.7525935,0.735735736 L28.7525935,7.60140273 L17.2737247,7.60140273 L17.2737247,0.735735736 L18.647812,0.735735736 Z" id="Combined-Shape"></path>
                        <polygon id="Fill-68" points="61.0660661 13.2240648 54.7432745 13.2240648 54.7432745 2.22660625 59.3053111 2.22660625 59.3053111 0.735735736 48.6525221 0.735735736 48.6525221 2.22660625 53.3488273 2.22660625 53.3488273 13.2240648 47.0870871 13.2240648 47.0870871 14.7147147 61.0660661 14.7147147"></polygon>
                        <polygon id="Fill-70" points="38.6261261 7.39365284 43.6113026 16.1861862 44.8798799 15.4407717 39.333577 5.65980185 39.333577 0.735735736 37.9726297 0.735735736 37.9726297 5.56436051 32.3723724 15.4407717 33.6409497 16.1861862"></polygon>
                    </g>
                </g>
            </g>
        </g>
    </g>
</svg>