<?xml version="1.0" encoding="UTF-8" standalone="no"?>
<svg width="159px" height="40px" viewBox="0 0 159 40" version="1.1" xmlns="http://www.w3.org/2000/svg" xmlns:xlink="http://www.w3.org/1999/xlink">
    <!-- Generator: Sketch 49.3 (51167) - http://www.bohemiancoding.com/sketch -->
    <title>人工智能</title>
    <desc>Created with Sketch.</desc>
    <defs>
        <polygon id="path-1" points="15 48.8730028 15 9.23501337 53.3618268 9.23501337 53.3618268 48.8730028"></polygon>
        <rect id="path-3" x="15" y="9" width="160" height="42.9473684"></rect>
    </defs>
    <g id="Page-1" stroke="none" stroke-width="1" fill="none" fill-rule="evenodd">
        <g id="1首页" transform="translate(-30.000000, -9.000000)">
            <g id="nav">
                <g id="人工智能" transform="translate(15.000000, 0.000000)">
                    <g id="Group-3">
                        <rect id="Rectangle-4" fill="#FFADAD" opacity="0" x="0" y="0" width="190" height="60"></rect>
                        <mask id="mask-2" fill="white">
                            <use xlink:href="#path-1"></use>
                        </mask>
                        <g id="Clip-2"></g>
                        <path d="M33.3682146,48.0335562 L33.3682146,31.3159194 C32.2387558,30.9647197 31.4174973,29.900822 31.4174973,28.6428403 C31.4174973,27.0986176 32.6547349,25.8467093 34.1808612,25.8467093 C35.7072485,25.8467093 36.9442251,27.0986176 36.9442251,28.6428403 C36.9442251,29.900822 36.1232276,30.9647197 34.9937688,31.3159194 L34.9937688,48.8730028 L53.3618268,48.8730028 L53.3618268,28.6428403 C53.3618268,17.924118 44.7742345,9.23496056 34.1808612,9.23496056 C23.5874879,9.23496056 14.9998956,17.924118 14.9998956,28.6428403 C14.9998956,39.0858841 23.1519365,47.6026103 33.3682146,48.0335562" id="Fill-1" fill="#FFFFFF" mask="url(#mask-2)"></path>
                    </g>
                    <polygon id="Fill-4" fill="#FFFFFF" points="172.473684 48.5789474 173.304235 48.5789474 173.304235 41 172.473684 41"></polygon>
                    <polygon id="Fill-6" fill="#FFFFFF" points="62.1578947 48.5789474 62.9770088 48.5789474 62.9770088 41 62.1578947 41"></polygon>
                    <polygon id="Fill-8" fill="#FFFFFF" points="64.6842105 41.8421053 64.6842105 44.1288796 67.2105263 48.5789474 67.2105263 48.5716673 67.2105263 46.2913331"></polygon>
                    <polygon id="Fill-10" fill="#FFFFFF" points="66.3684211 46.3814628 66.3684211 48.5789474 67.1875351 48.5789474 67.1875351 41 66.3684211 41"></polygon>
                    <polygon id="Fill-12" fill="#FFFFFF" points="79.8421053 41 77.3211942 41 77.3157895 41.7459529 79.8421053 41.7459529"></polygon>
                    <polygon id="Fill-14" fill="#FFFFFF" points="76.7619979 47.4690416 76.7619979 45.1494358 76.7671878 45.1494358 76.7671878 45.1491654 79.2709644 45.1491654 79.2709644 44.0389891 76.7619979 44.0389891 76.7619979 43.4813318 76.7560665 43.4813318 76.7619979 42.1788692 76.7619979 42.1109876 76.762245 42.1109876 76.7671878 41 75.6315789 41 75.6315789 48.5789474 76.2091454 48.5789474 79.8421053 48.5789474 79.8421053 47.4690416 76.7671878 47.4690416"></polygon>
                    <polygon id="Fill-16" fill="#FFFFFF" points="90.7881448 48.5789474 90.7894737 42.1112184 90.7894737 41 87.4210526 41 87.4210526 42.1112184 89.5623946 42.1112184 89.5623946 48.5789474"></polygon>
                    <polygon id="Fill-18" fill="#FFFFFF" points="91.6315789 41.7457714 93.3157895 41.7457714 93.3157895 41 91.6374289 41"></polygon>
                    <polygon id="Fill-20" fill="#FFFFFF" points="114.607319 41 114.513573 41 111.842105 48.5789474 113.141708 48.5789474 115.210526 42.7105019 116.105015 45.2470153 114.944914 45.2470153 114.555424 46.359735 116.497574 46.359735 117.280182 48.5786766 118.578947 48.5786766 115.908038 41"></polygon>
                    <polygon id="Fill-22" fill="#FFFFFF" points="159.238898 41 159.145152 41 156.473684 48.5789474 157.773287 48.5789474 159.842105 42.7105019 160.736594 45.2470153 159.576493 45.2470153 159.187003 46.359735 161.129153 46.359735 161.91176 48.5786766 163.210526 48.5786766 160.539616 41"></polygon>
                    <path d="M129.103073,44.5219737 C128.436002,44.2199703 127.624644,43.8237712 127.459229,43.7214417 C127.098768,43.4984157 126.914544,43.2690925 126.914544,43.0358336 C126.914544,42.6026384 127.467216,42.1998797 128.142532,42.1998797 C128.649599,42.1998797 129.107196,42.4310396 129.289616,42.7511475 L129.424628,42.9883422 L130.276696,42.0862677 L130.170799,41.9453677 C129.731238,41.3597278 128.971153,41 128.142532,41 C126.824365,41 125.73783,41.9023369 125.73783,43.0358336 C125.73783,43.7154068 126.135135,44.3341071 126.779017,44.7087908 C126.821015,44.7339796 126.952935,44.7987883 127.239448,44.9362773 C127.249497,44.9412625 127.878692,45.2422164 128.07786,45.3379864 C128.103111,45.350056 128.103111,45.350056 128.128103,45.3623881 C128.198443,45.3962355 128.265176,45.4282463 128.328817,45.4592076 C128.886127,45.728413 129.191707,46.0535062 129.191707,46.3885699 C129.191707,46.905203 128.529531,47.3795924 127.723068,47.3795924 C127.077898,47.3795924 126.503068,47.0705046 126.31704,46.6593497 L126.192592,46.3846342 L125.315789,47.3121598 L125.409061,47.4509607 C125.874645,48.1439155 126.75557,48.5789474 127.723068,48.5789474 C129.173671,48.5789474 130.368421,47.6083908 130.368421,46.3885699 C130.368421,45.5998451 129.868826,44.8691071 129.103073,44.5219737" id="Fill-24" fill="#FFFFFF"></path>
                    <polygon id="Fill-26" fill="#FFFFFF" points="102.025156 47.4690416 102.025156 45.1494358 102.030346 45.1494358 102.030346 45.1491654 104.534369 45.1491654 104.534369 44.0389891 102.025156 44.0389891 102.025156 43.4813318 102.019224 43.4813318 102.025156 42.1788692 102.025156 42.1109876 102.025403 42.1109876 102.030346 41 100.894737 41 100.894737 48.5789474 101.472303 48.5789474 105.105263 48.5789474 105.105263 47.4690416 102.030346 47.4690416"></polygon>
                    <polygon id="Fill-28" fill="#FFFFFF" points="105.105263 41 102.584352 41 102.578947 41.7459529 105.105263 41.7459529"></polygon>
                    <polygon id="Fill-30" fill="#FFFFFF" points="139.919712 47.4690416 139.919712 45.1494358 139.924902 45.1494358 139.924902 45.1491654 142.429073 45.1491654 142.429073 44.0389891 139.919712 44.0389891 139.919712 43.4813318 139.91378 43.4813318 139.919712 42.1788692 139.919712 42.1109876 139.919959 42.1109876 139.924902 41 138.789474 41 138.789474 48.5789474 139.366827 48.5789474 143 48.5789474 143 47.4690416 139.924902 47.4690416"></polygon>
                    <polygon id="Fill-32" fill="#FFFFFF" points="143 41 140.479089 41 140.473684 41.7459529 143 41.7459529"></polygon>
                    <path d="M148.464656,32.494936 L141.269001,32.494936 L141.266943,32.0575493 L141.2654,32.0575493 L141.250736,29.2369092 L139.631579,29.2405304 L139.631579,37.6315789 L148.659398,37.6315789 L150.151214,37.6315789 C151.576916,37.6315789 153.105263,36.5157384 153.105263,35.0126903 L153.105263,30.7371121 L153.105263,29.2105263 L142.139035,29.2348399 L142.139035,30.9952504 L151.483019,30.9678329 L151.483019,35.0126903 C151.483019,35.6295841 151.0444,35.9311766 150.526033,35.9311766 L148.946236,35.9311766 L141.284951,35.9311766 L141.276976,34.2421551 L148.464656,34.2421551 L148.464656,32.494936 Z" id="Fill-34" fill="#FFFFFF"></path>
                    <polygon id="Fill-36" fill="#FFFFFF" points="144.293194 25 143 26.2884332 145.075227 28.3684211 146.368421 27.0802575"></polygon>
                    <polygon id="Fill-38" fill="#FFFFFF" points="137.145466 22.7752491 137.105263 24.4414551 139.856415 24.4918319 137.441462 27.080984 138.64228 28.3684211 142.217596 24.5352044 145.526316 24.5958182 145.526316 22.7752491 142.292224 22.7752491 142.292224 21.1006919 145.10368 21.1006919 145.10368 19.2798533 139.914458 19.2798533 139.914458 18.2631579 138.330705 18.2631579 138.330705 19.3598636 138.330705 19.4398738 137.316581 20.52742 138.517399 21.8145877 139.183264 21.1006919 140.708471 21.1006919 140.708471 22.7752491"></polygon>
                    <polygon id="Fill-40" fill="#FFFFFF" points="149.824111 21.6781918 152.237255 21.6781918 152.237255 25.7954924 148.921453 25.7954924 148.921453 22.7159688 148.906807 19.9473684 147.210526 19.9473684 147.210526 27.5263158 153.947368 27.5263158 153.947368 19.9473684 149.824111 19.9473684"></polygon>
                    <polygon id="Fill-42" fill="#FFFFFF" points="159.024506 34.2330715 162.368421 34.2330715 162.368421 32.4939111 159.024506 32.4939111 159.024506 30.9949634 162.368421 30.9949634 162.368421 29.255803 159.024506 29.255803 159.024506 28.4177619 159.01079 25.8421053 157.315789 25.8421053 157.315789 37.6315789 159.024506 37.6315789"></polygon>
                    <polygon id="Fill-44" fill="#FFFFFF" points="173.315789 31.1930895 172.163095 30.0526316 169.105263 33.1229568 170.258991 34.2631579"></polygon>
                    <path d="M166.582457,29.2105263 L166.578947,34.9091981 C166.578947,36.4066236 167.78773,37.6315789 169.283726,37.6315789 L173.315789,37.6315789 L173.315789,36.0114517 L169.283726,36.0114517 C168.739261,36.0114517 168.281176,35.523738 168.281176,34.9091981 L168.284685,29.2105263 L166.582457,29.2105263 Z" id="Fill-46" fill="#FFFFFF"></path>
                    <polygon id="Fill-48" fill="#FFFFFF" points="173.315789 20.245721 172.163095 19.1052632 169.105263 22.1755884 170.258991 23.3157895"></polygon>
                    <polygon id="Fill-50" fill="#FFFFFF" points="164.894737 37.6315789 164.894737 25.8421053 159.842105 25.8421053 159.842105 27.5843552 163.362018 27.5843552 163.362018 37.6315789"></polygon>
                    <polygon id="Fill-52" fill="#FFFFFF" points="164.45506 21.1583342 163.388333 22.3287361 158.945795 22.3360376 161.641425 19.5027888 160.377564 18.2631579 157.315789 21.4628334 157.315789 24.1578947 164.111799 24.1578947 165.736842 22.4155427"></polygon>
                    <path d="M173.315789,25.8368366 L169.283726,25.8368366 C168.739531,25.8368366 168.281176,25.3282455 168.281176,24.6873993 L168.281176,19.1052632 L166.578947,19.1052632 L166.578947,24.6873993 C166.578947,26.2489243 167.78773,27.5263158 169.283726,27.5263158 L173.315789,27.5263158 L173.315789,25.8368366 Z" id="Fill-54" fill="#FFFFFF"></path>
                    <polygon id="Fill-56" fill="#FFFFFF" points="69.1921453 23.3157895 67.6315789 26.2243887 66.0710126 23.3157895 64.6842105 24.1772108 66.7072141 27.9472313 64.6842105 31.717526 66.0710126 32.5789474 67.6315789 29.6703481 69.1921453 32.5789474 70.5789474 31.717526 68.5559438 27.9472313 70.5789474 24.1772108"></polygon>
                    <path d="M79,34.9154653 L79,30.3481797 L78.9992181,30.3481797 L78.9992181,19.1052632 L65.5346559,19.1052632 L65.5263158,20.8996392 L77.35648,20.90017 L77.35648,30.3481797 L77.35648,34.9154653 C77.35648,35.5479158 76.8743183,35.9637992 76.3488923,35.9637992 L74.2510977,35.9637992 L74.2510977,37.6315789 L76.3488923,37.6315789 C77.7935531,37.6315789 79,36.4571796 79,34.9154653" id="Fill-58" fill="#FFFFFF"></path>
                    <polygon id="Fill-60" fill="#FFFFFF" points="64.6842105 19.1142867 63 19.1052632 63 37.6315789 64.6842105 37.6315789"></polygon>
                    <polygon id="Fill-62" fill="#FFFFFF" points="71.9657494 32.5789474 73.5263158 29.6703481 75.0868821 32.5789474 76.4736842 31.717526 74.4506806 27.9475055 76.4736842 24.1772108 75.0868821 23.3157895 73.5263158 26.2243887 71.9657494 23.3157895 70.5789474 24.1772108 72.6019509 27.9475055 70.5789474 31.717526"></polygon>
                    <path d="M97.5115494,29.251588 L85.6329186,29.251588 L85.6329186,28.3684211 L83.9992927,28.3684211 L83.9992927,29.251588 L81.5263158,33.7623692 L83.0454376,34.6859157 L85.0116951,31.0992267 L87.3566969,31.1033192 L83.8226145,37.5501377 L85.3417363,38.4736842 L89.3802065,31.1068661 L91.7661396,31.1109586 L88.2362021,37.5501377 L89.7553239,38.4736842 L93.7893902,31.1145054 L95.7882892,31.1180523 L95.7942475,35.4801385 C95.7942475,36.1322141 95.3538473,36.6492365 94.8305482,36.6492365 L92.7425329,36.6492365 L92.7425329,38.3667329 L94.8305482,38.3667329 C96.2688436,38.3667329 97.5263158,37.0680382 97.5263158,35.4801385 L97.5263158,30.2228806 L97.5190621,30.2226078 L97.5115494,29.251588 Z" id="Fill-64" fill="#FFFFFF"></path>
                    <polygon id="Fill-66" fill="#FFFFFF" points="84.8234046 19.1052632 83.2105263 19.1052632 83.2105263 27.5263158 96.6842105 27.5263158 96.6842105 19.1052632 85.7200385 19.1052632 85.7200385 20.9442007 95.0083686 20.9328476 95.0083686 25.7030564 84.8380164 25.7154908 84.8380164 24.2444489 92.1768652 24.2444489 92.1768652 22.4174051 84.8380164 22.4174051 84.8380164 22.0705939"></polygon>
                    <polygon id="Fill-68" fill="#FFFFFF" points="135.421053 34.993514 127.803249 34.993514 127.803249 21.7435939 133.299666 21.7435939 133.299666 19.9473684 120.465009 19.9473684 120.465009 21.7435939 126.123196 21.7435939 126.123196 34.993514 118.578947 34.993514 118.578947 36.7894737 135.421053 36.7894737"></polygon>
                    <polygon id="Fill-70" fill="#FFFFFF" points="108.473684 27.0886339 114.515238 37.6315789 116.052632 36.7377678 109.331047 25.0096091 109.331047 19.1052632 107.681709 19.1052632 107.681709 24.8951673 100.894737 36.7377678 102.43213 37.6315789"></polygon>
                    <g id="Rectangle-9" opacity="0">
                        <use fill="#D8D8D8" fill-rule="evenodd" xlink:href="#path-3"></use>
                        <rect stroke="#979797" stroke-width="1" x="15.5" y="9.5" width="159" height="41.9473684"></rect>
                    </g>
                </g>
            </g>
        </g>
    </g>
</svg>