<?xml version="1.0" encoding="UTF-8" standalone="no"?>
<svg width="50px" height="26px" viewBox="0 0 50 26" version="1.1" xmlns="http://www.w3.org/2000/svg" xmlns:xlink="http://www.w3.org/1999/xlink">
    <!-- Generator: Sketch 49.3 (51167) - http://www.bohemiancoding.com/sketch -->
    <title>AI能力-智能语音</title>
    <desc>Created with Sketch.</desc>
    <defs></defs>
    <g id="Page-1" stroke="none" stroke-width="1" fill="none" fill-rule="evenodd">
        <g id="1首页" transform="translate(-690.000000, -658.000000)">
            <g id="AI能力-灰底" transform="translate(0.000000, 472.000000)">
                <g id="智能语音" transform="translate(660.000000, 127.000000)">
                    <g id="AI能力-智能语音" transform="translate(30.000000, 43.000000)">
                        <rect id="Rectangle-11" fill-opacity="0.1" fill="#FFFFFF" opacity="0" x="0" y="0" width="57" height="60"></rect>
                        <path d="M37,42 C36.4411765,42 36,41.5759341 36,41.069791 L36,16.930209 C36,16.4103863 36.4558824,16 37,16 C37.5588235,16 38,16.4240659 38,16.930209 L38,41.0561115 C38,41.5759341 37.5588235,42 37,42 Z M43,39 C42.4411765,39 42,38.5837202 42,38.08687 L42,19.91313 C42,19.4028515 42.4558824,19 43,19 C43.5588235,19 44,19.4162798 44,19.91313 L44,38.08687 C44,38.5971485 43.5588235,39 43,39 Z M31,39 C30.4411765,39 30,38.5837202 30,38.08687 L30,19.91313 C30,19.4028515 30.4558824,19 31,19 C31.5588235,19 32,19.4162798 32,19.91313 L32,38.08687 C32,38.5971485 31.5588235,39 31,39 Z M25,37 C24.4411765,37 24,36.5355529 24,35.9812128 L24,22.0187872 C24,21.4494649 24.4558824,21 25,21 C25.5588235,21 26,21.4644471 26,22.0187872 L26,35.9662307 C26,36.5355529 25.5588235,37 25,37 Z M49,37 C48.4411765,37 48,36.5355529 48,35.9812128 L48,22.0187872 C48,21.4494649 48.4558824,21 49,21 C49.5588235,21 50,21.4644471 50,22.0187872 L50,35.9662307 C50,36.5355529 49.5588235,37 49,37 Z M13,42 C12.4411765,42 12,41.5759341 12,41.069791 L12,16.930209 C12,16.4103863 12.4558824,16 13,16 C13.5588235,16 14,16.4240659 14,16.930209 L14,41.0561115 C14,41.5759341 13.5588235,42 13,42 Z M19,39 C18.4411765,39 18,38.5837202 18,38.08687 L18,19.91313 C18,19.4028515 18.4558824,19 19,19 C19.5588235,19 20,19.4162798 20,19.91313 L20,38.08687 C20,38.5971485 19.5588235,39 19,39 Z M7,39 C6.44117647,39 6,38.5837202 6,38.08687 L6,19.91313 C6,19.4028515 6.45588235,19 7,19 C7.55882353,19 8,19.4162798 8,19.91313 L8,38.08687 C8,38.5971485 7.55882353,39 7,39 Z M1,37 C0.441176471,37 0,36.5355529 0,35.9812128 L0,22.0187872 C0,21.4494649 0.455882353,21 1,21 C1.55882353,21 2,21.4644471 2,22.0187872 L2,35.9662307 C2,36.5355529 1.55882353,37 1,37 Z" id="ic语音" fill="#4383DB" fill-rule="nonzero"></path>
                    </g>
                </g>
            </g>
        </g>
    </g>
</svg>